<svg version="1.1" id="Layer_1" xmlns="http://www.w3.org/2000/svg" xmlns:xlink="http://www.w3.org/1999/xlink" x="0px" y="0px"
	 width="100%" viewBox="0 0 348 94" enable-background="new 0 0 348 94" xml:space="preserve">
<path fill="#040404" opacity="1.000000" stroke="none" 
	d="
M276.000000,95.000000 
	C184.000015,95.000000 92.500023,95.000000 1.000025,95.000000 
	C1.000016,63.666683 1.000016,32.333363 1.000008,1.000033 
	C116.999969,1.000022 232.999939,1.000022 348.999939,1.000011 
	C348.999939,32.333302 348.999939,63.666599 348.999969,94.999954 
	C324.833344,95.000000 300.666656,95.000000 276.000000,95.000000 
M346.225525,89.408051 
	C346.225525,60.677261 346.225525,31.946476 346.225525,3.338735 
	C231.545654,3.338735 117.521729,3.338735 3.588295,3.338735 
	C3.588295,33.389637 3.588295,63.105297 3.588295,92.995163 
	C4.936629,92.995163 5.930768,92.995163 6.924908,92.995163 
	C118.548447,92.995178 230.171997,92.995247 341.795532,92.994217 
	C342.794983,92.994202 343.986847,93.311768 344.738953,92.876450 
	C345.469025,92.453857 345.747742,91.251419 346.225525,89.408051 
z"/>
<path fill="#FDFDFD" opacity="1.000000" stroke="none" 
	d="
M346.225098,89.899750 
	C345.747742,91.251419 345.469025,92.453857 344.738953,92.876450 
	C343.986847,93.311768 342.794983,92.994202 341.795532,92.994217 
	C230.171997,92.995247 118.548447,92.995178 6.924908,92.995163 
	C5.930768,92.995163 4.936629,92.995163 3.588295,92.995163 
	C3.588295,63.105297 3.588295,33.389637 3.588295,3.338735 
	C117.521729,3.338735 231.545654,3.338735 346.225525,3.338735 
	C346.225525,31.946476 346.225525,60.677261 346.225098,89.899750 
M26.501625,9.000876 
	C21.071299,9.000876 15.640973,9.000876 10.275537,9.000876 
	C10.275537,35.302292 10.275537,61.031734 10.275537,86.737152 
	C65.124817,86.737152 119.695656,86.737152 174.147888,86.737152 
	C174.147888,60.744846 174.147888,35.015419 174.147888,9.000876 
	C125.075050,9.000876 76.288147,9.000876 26.501625,9.000876 
M236.007416,53.248188 
	C240.675186,60.159889 248.322418,62.451241 255.470505,59.079933 
	C261.589813,56.193836 264.475616,49.391041 262.396088,42.753853 
	C260.021484,35.174709 252.104401,31.432098 243.861740,33.992161 
	C236.176514,36.379086 233.077377,43.438866 236.007416,53.248188 
M289.027344,45.125271 
	C289.204834,37.157364 286.374176,34.052570 278.638489,33.876087 
	C274.865540,33.790009 271.088989,33.861195 267.353821,33.861195 
	C267.353821,42.877350 267.353821,51.411671 267.353821,59.650742 
	C269.962982,59.650742 272.206024,59.650742 274.409088,59.650742 
	C274.647034,57.099037 274.851562,54.906097 275.179932,51.384846 
	C279.781464,55.602074 281.313293,63.476070 289.248322,59.197300 
	C287.971527,56.782669 286.544861,54.084576 285.344452,51.814373 
	C286.697083,49.596394 287.806396,47.777355 289.027344,45.125271 
M228.056992,51.744068 
	C232.024323,48.982315 232.844101,45.018631 231.776321,40.697994 
	C230.804108,36.763973 227.839752,34.414474 223.896927,34.089520 
	C219.484558,33.725864 215.019119,34.006035 210.372284,34.006035 
	C210.372284,42.752594 210.372284,51.157307 210.372284,59.708183 
	C212.957947,59.708183 215.333557,59.708183 217.704056,59.708183 
	C217.903442,57.509052 218.074966,55.617184 218.203049,54.204479 
	C221.585403,53.426075 224.470291,52.762157 228.056992,51.744068 
M315.713379,40.136856 
	C315.713379,38.191193 315.713379,36.245525 315.713379,34.215248 
	C307.744171,34.215248 300.040283,34.215248 292.432587,34.215248 
	C292.432587,36.537796 292.432587,38.475384 292.432587,40.907341 
	C295.070648,40.907341 297.465637,40.907341 300.253967,40.907341 
	C300.253967,47.490997 300.253967,53.583504 300.253967,59.828594 
	C302.923706,59.828594 305.184204,59.828594 307.995880,59.828594 
	C307.995880,53.421837 307.995880,47.190678 307.995880,40.744129 
	C310.708984,40.744129 312.870361,40.744129 315.713379,40.136856 
z"/>
<path fill="#010101" opacity="1.000000" stroke="none" 
	d="
M27.001434,9.000876 
	C76.288147,9.000876 125.075050,9.000876 174.147888,9.000876 
	C174.147888,35.015419 174.147888,60.744846 174.147888,86.737152 
	C119.695656,86.737152 65.124817,86.737152 10.275537,86.737152 
	C10.275537,61.031734 10.275537,35.302292 10.275537,9.000876 
	C15.640973,9.000876 21.071299,9.000876 27.001434,9.000876 
M60.295868,46.749901 
	C60.296120,59.539162 60.296120,59.539162 63.671680,59.636757 
	C63.671680,51.185883 63.671680,42.738937 63.671680,32.986267 
	C56.526157,36.663010 55.135887,44.145519 50.441528,48.680161 
	C45.746712,44.330509 44.394932,36.656242 37.194908,33.000404 
	C37.194908,42.959946 37.194908,51.409313 37.194908,59.858685 
	C37.739174,59.959454 38.283443,60.060223 38.827709,60.160995 
	C42.558838,54.750519 38.711201,47.715614 41.124760,41.309452 
	C43.495590,44.837315 45.547386,47.795597 47.498135,50.819077 
	C49.574051,54.036556 51.389027,53.925220 53.385986,50.699390 
	C55.253201,47.683155 57.344074,44.805382 59.336510,41.866669 
	C59.656284,41.939163 59.976055,42.011654 60.295830,42.084148 
	C60.295830,43.332405 60.295830,44.580662 60.295868,46.749901 
M135.031128,46.500935 
	C135.030319,43.003471 135.104752,39.503040 134.966873,36.010990 
	C134.938400,35.289562 134.119522,34.599346 133.664932,33.894745 
	C133.052902,34.615479 131.967087,35.302441 131.912872,36.062939 
	C131.705185,38.976635 131.828857,41.913956 131.828857,44.825298 
	C126.884331,44.825298 122.605362,44.825298 117.925171,44.825298 
	C117.925171,41.854786 118.050949,39.058147 117.848465,36.285480 
	C117.787796,35.454754 116.810837,34.690948 116.253670,33.896488 
	C115.704086,34.704044 114.691673,35.503532 114.677437,36.320415 
	C114.552620,43.479675 114.551971,50.643066 114.687935,57.801933 
	C114.701904,58.537285 115.848259,59.251133 116.469162,59.974960 
	C116.954147,59.285362 117.822647,58.614727 117.857841,57.902885 
	C118.011795,54.789474 117.924110,51.664108 117.924110,48.470680 
	C122.773682,48.470680 127.150856,48.470680 131.825027,48.470680 
	C131.825027,50.779724 131.599899,52.789597 131.890686,54.721840 
	C132.161560,56.521801 132.981430,58.239147 133.559631,59.992859 
	C134.050125,58.158398 134.772522,56.348747 134.972137,54.483162 
	C135.218781,52.177921 135.031128,49.826202 135.031128,46.500935 
M96.491699,60.037651 
	C96.947845,58.637672 97.765274,57.246040 97.797844,55.836281 
	C97.941856,49.603462 97.860138,43.365429 97.860138,37.180080 
	C105.910400,36.882923 105.910400,36.882923 106.207794,33.802219 
	C100.058250,33.802219 93.942177,33.739769 87.830635,33.877838 
	C87.027618,33.895977 86.247787,34.940289 85.457214,35.509327 
	C86.311111,36.016426 87.126015,36.856293 88.026970,36.961861 
	C89.946609,37.186802 91.910912,37.030621 94.221954,37.030621 
	C94.221954,43.590740 94.138542,49.701820 94.284149,55.807442 
	C94.317986,57.226410 95.131874,58.626774 96.491699,60.037651 
M77.819931,46.502480 
	C77.818954,43.173401 77.958702,39.834507 77.727745,36.521461 
	C77.661934,35.577374 76.519188,34.708363 75.870285,33.804920 
	C75.281586,34.759258 74.200027,35.704529 74.182274,36.669376 
	C74.041862,44.298138 74.104195,51.930634 74.104195,59.561985 
	C74.563782,59.851070 75.023369,60.140156 75.482956,60.429245 
	C76.260910,59.446507 77.617805,58.514759 77.709686,57.471592 
	C78.000671,54.168049 77.818886,50.822865 77.819931,46.502480 
z"/>
<path fill="#090909" opacity="1.000000" stroke="none" 
	d="
M235.860779,52.900223 
	C233.077377,43.438866 236.176514,36.379086 243.861740,33.992161 
	C252.104401,31.432098 260.021484,35.174709 262.396088,42.753853 
	C264.475616,49.391041 261.589813,56.193836 255.470505,59.079933 
	C248.322418,62.451241 240.675186,60.159889 235.860779,52.900223 
M253.814148,51.276806 
	C253.811264,48.359833 254.475632,45.195850 253.525558,42.629536 
	C253.046646,41.335915 249.391357,40.198582 247.624252,40.673180 
	C245.649048,41.203690 243.258438,43.399384 242.759781,45.315681 
	C242.257095,47.247330 243.232498,50.316067 244.671463,51.831532 
	C247.079971,54.368103 250.346542,53.885319 253.814148,51.276806 
z"/>
<path fill="#060606" opacity="1.000000" stroke="none" 
	d="
M288.971558,45.541794 
	C287.806396,47.777355 286.697083,49.596394 285.344452,51.814373 
	C286.544861,54.084576 287.971527,56.782669 289.248322,59.197300 
	C281.313293,63.476070 279.781464,55.602074 275.179932,51.384846 
	C274.851562,54.906097 274.647034,57.099037 274.409088,59.650742 
	C272.206024,59.650742 269.962982,59.650742 267.353821,59.650742 
	C267.353821,51.411671 267.353821,42.877350 267.353821,33.861195 
	C271.088989,33.861195 274.865540,33.790009 278.638489,33.876087 
	C286.374176,34.052570 289.204834,37.157364 288.971558,45.541794 
M280.971710,41.201637 
	C278.895111,40.694996 276.818512,40.188354 274.654480,39.660389 
	C274.654480,42.488964 274.654480,44.388786 274.654480,46.527580 
	C278.111481,46.262199 282.177307,47.628952 280.971710,41.201637 
z"/>
<path fill="#0B0B0B" opacity="1.000000" stroke="none" 
	d="
M227.706085,51.921154 
	C224.470291,52.762157 221.585403,53.426075 218.203049,54.204479 
	C218.074966,55.617184 217.903442,57.509052 217.704056,59.708183 
	C215.333557,59.708183 212.957947,59.708183 210.372284,59.708183 
	C210.372284,51.157307 210.372284,42.752594 210.372284,34.006035 
	C215.019119,34.006035 219.484558,33.725864 223.896927,34.089520 
	C227.839752,34.414474 230.804108,36.763973 231.776321,40.697994 
	C232.844101,45.018631 232.024323,48.982315 227.706085,51.921154 
M217.856995,41.809235 
	C217.856995,43.551861 217.856995,45.294483 217.856995,48.208408 
	C220.596909,46.860554 222.564972,46.235992 224.010056,44.999981 
	C224.534164,44.551693 224.112564,41.737045 223.597519,41.563931 
	C221.845901,40.975174 219.860031,41.083336 217.856995,41.809235 
z"/>
<path fill="#0D0D0D" opacity="1.000000" stroke="none" 
	d="
M315.372559,40.440491 
	C312.870361,40.744129 310.708984,40.744129 307.995880,40.744129 
	C307.995880,47.190678 307.995880,53.421837 307.995880,59.828594 
	C305.184204,59.828594 302.923706,59.828594 300.253967,59.828594 
	C300.253967,53.583504 300.253967,47.490997 300.253967,40.907341 
	C297.465637,40.907341 295.070648,40.907341 292.432587,40.907341 
	C292.432587,38.475384 292.432587,36.537796 292.432587,34.215248 
	C300.040283,34.215248 307.744171,34.215248 315.713379,34.215248 
	C315.713379,36.245525 315.713379,38.191193 315.372559,40.440491 
z"/>
<path fill="#E9E9E9" opacity="1.000000" stroke="none" 
	d="
M60.295849,46.289410 
	C60.295830,44.580662 60.295830,43.332405 60.295830,42.084148 
	C59.976055,42.011654 59.656284,41.939163 59.336510,41.866669 
	C57.344074,44.805382 55.253201,47.683155 53.385986,50.699390 
	C51.389027,53.925220 49.574051,54.036556 47.498135,50.819077 
	C45.547386,47.795597 43.495590,44.837315 41.124760,41.309452 
	C38.711201,47.715614 42.558838,54.750519 38.827709,60.160995 
	C38.283443,60.060223 37.739174,59.959454 37.194908,59.858685 
	C37.194908,51.409313 37.194908,42.959946 37.194908,33.000404 
	C44.394932,36.656242 45.746712,44.330509 50.441528,48.680161 
	C55.135887,44.145519 56.526157,36.663010 63.671680,32.986267 
	C63.671680,42.738937 63.671680,51.185883 63.671680,59.636757 
	C60.296120,59.539162 60.296120,59.539162 60.295849,46.289410 
z"/>
<path fill="#FAFAFA" opacity="1.000000" stroke="none" 
	d="
M135.031128,46.997749 
	C135.031128,49.826202 135.218781,52.177921 134.972137,54.483162 
	C134.772522,56.348747 134.050125,58.158398 133.559631,59.992859 
	C132.981430,58.239147 132.161560,56.521801 131.890686,54.721840 
	C131.599899,52.789597 131.825027,50.779724 131.825027,48.470680 
	C127.150856,48.470680 122.773682,48.470680 117.924110,48.470680 
	C117.924110,51.664108 118.011795,54.789474 117.857841,57.902885 
	C117.822647,58.614727 116.954147,59.285362 116.469162,59.974960 
	C115.848259,59.251133 114.701904,58.537285 114.687935,57.801933 
	C114.551971,50.643066 114.552620,43.479675 114.677437,36.320415 
	C114.691673,35.503532 115.704086,34.704044 116.253670,33.896484 
	C116.810837,34.690948 117.787796,35.454754 117.848465,36.285480 
	C118.050949,39.058147 117.925171,41.854786 117.925171,44.825298 
	C122.605362,44.825298 126.884331,44.825298 131.828857,44.825298 
	C131.828857,41.913956 131.705185,38.976635 131.912872,36.062939 
	C131.967087,35.302441 133.052902,34.615479 133.664932,33.894745 
	C134.119522,34.599346 134.938400,35.289562 134.966873,36.010990 
	C135.104752,39.503040 135.030319,43.003471 135.031128,46.997749 
z"/>
<path fill="#DFDFDF" opacity="1.000000" stroke="none" 
	d="
M96.039268,60.036674 
	C95.131874,58.626774 94.317986,57.226410 94.284149,55.807442 
	C94.138542,49.701820 94.221954,43.590740 94.221954,37.030621 
	C91.910912,37.030621 89.946609,37.186802 88.026970,36.961861 
	C87.126015,36.856293 86.311111,36.016426 85.457214,35.509323 
	C86.247787,34.940289 87.027618,33.895977 87.830635,33.877838 
	C93.942177,33.739769 100.058250,33.802219 106.207794,33.802219 
	C105.910400,36.882923 105.910400,36.882923 97.860138,37.180080 
	C97.860138,43.365429 97.941856,49.603462 97.797844,55.836281 
	C97.765274,57.246040 96.947845,58.637672 96.039268,60.036674 
z"/>
<path fill="#D2D2D2" opacity="1.000000" stroke="none" 
	d="
M77.819931,46.998131 
	C77.818886,50.822865 78.000671,54.168049 77.709686,57.471592 
	C77.617805,58.514759 76.260910,59.446507 75.482956,60.429245 
	C75.023369,60.140156 74.563782,59.851070 74.104195,59.561985 
	C74.104195,51.930634 74.041862,44.298138 74.182274,36.669376 
	C74.200027,35.704529 75.281586,34.759258 75.870285,33.804920 
	C76.519188,34.708363 77.661934,35.577374 77.727745,36.521461 
	C77.958702,39.834507 77.818954,43.173401 77.819931,46.998131 
z"/>
<path fill="#F5F5F5" opacity="1.000000" stroke="none" 
	d="
M253.517059,51.570965 
	C250.346542,53.885319 247.079971,54.368103 244.671463,51.831532 
	C243.232498,50.316067 242.257095,47.247330 242.759781,45.315681 
	C243.258438,43.399384 245.649048,41.203690 247.624252,40.673180 
	C249.391357,40.198582 253.046646,41.335915 253.525558,42.629536 
	C254.475632,45.195850 253.811264,48.359833 253.517059,51.570965 
z"/>
<path fill="#E1E1E1" opacity="1.000000" stroke="none" 
	d="
M281.147552,41.551506 
	C282.177307,47.628952 278.111481,46.262199 274.654480,46.527580 
	C274.654480,44.388786 274.654480,42.488964 274.654480,39.660389 
	C276.818512,40.188354 278.895111,40.694996 281.147552,41.551506 
z"/>
<path fill="#F4F4F4" opacity="1.000000" stroke="none" 
	d="
M217.910309,41.367310 
	C219.860031,41.083336 221.845901,40.975174 223.597519,41.563931 
	C224.112564,41.737045 224.534164,44.551693 224.010056,44.999981 
	C222.564972,46.235992 220.596909,46.860554 217.856995,48.208408 
	C217.856995,45.294483 217.856995,43.551861 217.910309,41.367310 
z"/>
</svg>